<svg width="18" height="18" viewBox="0 0 18 18" fill="none" xmlns="http://www.w3.org/2000/svg">
<g clip-path="url(#clip0_3216_6315)">
<path d="M9.89385 6.75H14.8558C15.0644 6.74996 15.2707 6.79342 15.4616 6.8776C15.6524 6.96179 15.8236 7.08485 15.9642 7.23892C16.1048 7.39299 16.2117 7.5747 16.2781 7.77242C16.3445 7.97015 16.3689 8.17955 16.3498 8.38725L15.9246 13.0237C15.8563 13.7688 15.5121 14.4615 14.9594 14.9659C14.4068 15.4703 13.6856 15.7499 12.9373 15.75H11.8123C11.0641 15.7499 10.3429 15.4703 9.79027 14.9659C9.23761 14.4615 8.89337 13.7688 8.8251 13.0237L8.39985 8.38725C8.38076 8.17955 8.4052 7.97015 8.47161 7.77242C8.53802 7.5747 8.64494 7.39299 8.78553 7.23892C8.92612 7.08485 9.0973 6.96179 9.28814 6.8776C9.47897 6.79342 9.68527 6.74996 9.89385 6.75Z" stroke="#FF7F3E" stroke-width="1.5" stroke-linecap="round" stroke-linejoin="round"/>
<path d="M11.25 9.75H11.2583" stroke="#FF7F3E" stroke-width="1.5" stroke-linecap="round" stroke-linejoin="round"/>
<path d="M13.5 9.75H13.5083" stroke="#FF7F3E" stroke-width="1.5" stroke-linecap="round" stroke-linejoin="round"/>
<path d="M11.25 12.375C12 12.8752 12.75 12.8752 13.5 12.375" stroke="#FF7F3E" stroke-width="1.5" stroke-linecap="round" stroke-linejoin="round"/>
<path d="M6.47385 11.9865C6.37861 11.9955 6.28301 12 6.18735 12H5.06235C4.31413 11.9999 3.59294 11.7203 3.04027 11.2159C2.48761 10.7115 2.14337 10.0188 2.0751 9.27375L1.64985 4.63725C1.63076 4.42955 1.6552 4.22015 1.72161 4.02242C1.78802 3.8247 1.89494 3.64299 2.03553 3.48892C2.17612 3.33485 2.3473 3.21179 2.53814 3.1276C2.72897 3.04342 2.93527 2.99996 3.14385 3H8.10585C8.50367 3 8.8852 3.15804 9.16651 3.43934C9.44781 3.72064 9.60585 4.10218 9.60585 4.5" stroke="#FF7F3E" stroke-width="1.5" stroke-linecap="round" stroke-linejoin="round"/>
<path d="M4.5 6H4.50833" stroke="#FF7F3E" stroke-width="1.5" stroke-linecap="round" stroke-linejoin="round"/>
<path d="M6.75 6H6.75833" stroke="#FF7F3E" stroke-width="1.5" stroke-linecap="round" stroke-linejoin="round"/>
<path d="M4.5 9.00014C5.073 8.61764 5.646 8.52764 6.21825 8.73014" stroke="#FF7F3E" stroke-width="1.5" stroke-linecap="round" stroke-linejoin="round"/>
</g>
<defs>
<clipPath id="clip0_3216_6315">
<rect width="18" height="18" fill="white"/>
</clipPath>
</defs>
</svg>
